# xmcd
#
# Track frame offsets:
#	150
#	22574
#	44623
#	63673
#	83322
#	104620
#	123444
#	144594
#	166568
#	182318
#	201891
#	227014
#	244564
#	289261
#	322128
#
# Disc length: 4797 seconds
#
# Revision: 0
# Processed by: cddbd v1.5.1PL0 Copyright (c) Steve Scherf et al.
# Submitted via: dBpowerAMP V4.0
#
DISCID=c312bb0f
DTITLE=Savage Garden - Affirmation
DYEAR=1900
DGENRE=Pop
TTITLE0=Affirmation
TTITLE1=Hold Me
TTITLE2=I Knew I Loved You
TTITLE3=The Best Thing
TTITLE4=Crash and Burn
TTITLE5=Chained To You
TTITLE6=The Animal Song
TTITLE7=The Lover After Song
TTITLE8=Two Beds And A Coffee Machine
TTITLE9=You Can Still Be Free
TTITLE10=Gunning Down Romance
TTITLE11=In Don't Know You Anymore
TTITLE12=The Animal Song [Hex Hector club mix]
TTITLE13=Last Christmas
TTITLE14=DATA
EXTD=
EXTT0=
EXTT1=
EXTT2=
EXTT3=
EXTT4=
EXTT5=
EXTT6=
EXTT7=
EXTT8=
EXTT9=
EXTT10=
EXTT11=
EXTT12=
EXTT13=
EXTT14=
PLAYORDER=
